<?xml version="1.0" standalone="no"?>
<!DOCTYPE svg PUBLIC "-//W3C//DTD SVG 20010904//EN"
 "http://www.w3.org/TR/2001/REC-SVG-20010904/DTD/svg10.dtd">
<svg version="1.0" xmlns="http://www.w3.org/2000/svg"
 width="2420.000000pt" height="2652.000000pt" viewBox="0 0 2420.000000 2652.000000"
 preserveAspectRatio="xMidYMid meet">

<g transform="translate(0.000000,2652.000000) scale(0.100000,-0.100000)"
fill="#000000" stroke="none">
<path d="M11810 26504 c-688 -60 -1214 -202 -1765 -479 -121 -60 -1657 -942
-3895 -2234 -4106 -2371 -3945 -2277 -4090 -2374 -912 -609 -1580 -1528 -1879
-2588 -48 -170 -94 -384 -122 -562 -51 -336 -49 -25 -49 -6223 l0 -5761 1003
-578 c551 -319 1061 -615 1132 -658 280 -172 7690 -4446 7852 -4529 835 -431
1780 -593 2718 -467 500 67 984 214 1429 434 83 42 399 218 701 393 l550 317
3 1268 c1 697 0 1267 -2 1267 -2 0 -480 -275 -1062 -611 -582 -336 -1103 -633
-1158 -661 -376 -189 -817 -278 -1224 -248 -347 25 -639 103 -931 249 -54 28
-546 308 -1092 624 -547 316 -1723 995 -2614 1509 -891 514 -2406 1389 -3368
1943 l-1747 1009 3 5126 c2 4044 6 5142 15 5205 51 320 123 551 254 809 187
367 478 690 828 919 151 99 7641 4418 7765 4478 325 156 663 232 1035 232 407
0 800 -96 1130 -275 162 -89 7627 -4402 7684 -4440 190 -129 402 -321 541
-493 244 -302 418 -671 494 -1050 45 -223 44 -206 48 -1567 2 -720 7 -1308 10
-1308 3 0 496 282 1094 628 l1088 627 1 676 c0 665 -5 814 -36 1054 -119 929
-515 1796 -1143 2500 -261 292 -615 593 -940 799 -130 82 12 0 -4476 2592
-1798 1038 -3349 1927 -3445 1975 -487 242 -981 387 -1550 455 -128 15 -678
28 -790 18z"/>
<path d="M8256 19926 l-3846 -2220 0 -4446 0 -4446 3826 -2210 c2104 -1215
3836 -2213 3848 -2218 20 -8 177 79 1114 620 600 346 1091 631 1092 634 0 3
-492 289 -1093 636 -600 347 -2331 1345 -3844 2219 l-2753 1589 0 3176 0 3175
2747 1585 c1510 872 2752 1584 2759 1584 7 -1 1736 -997 3842 -2213 2106
-1216 3833 -2211 3836 -2211 3 0 6 569 6 1264 l0 1264 -1082 625 c-596 344
-2326 1343 -3845 2219 l-2761 1595 -3846 -2221z"/>
<path d="M10448 16116 l-1647 -951 0 -1905 0 -1905 1650 -951 1649 -952 1042
602 c573 330 1046 600 1050 598 5 -1 773 -444 1708 -984 l1700 -982 0 -1256 0
-1255 1646 -950 c905 -523 1650 -949 1654 -948 4 1 747 429 1649 950 l1641
947 0 1906 0 1905 -1646 950 c-906 523 -1650 949 -1654 948 -4 -1 -499 -286
-1101 -634 -602 -347 -1102 -634 -1111 -636 -10 -3 -660 366 -1648 937 l-1630
942 -2 1336 -3 1337 -1615 933 c-888 513 -1631 941 -1650 951 l-35 18 -1647
-951z"/>
</g>
</svg>
